<svg version="1.1" id="Layer_1" xmlns="http://www.w3.org/2000/svg" xmlns:xlink="http://www.w3.org/1999/xlink" x="0px" y="0px"
	 width="100%" viewBox="0 0 1024 1024" enable-background="new 0 0 1024 1024" xml:space="preserve">
<path fill="#000000" opacity="1.000000" stroke="none" 
	d="
M521.970215,244.651474 
	C565.941101,246.662659 606.954407,257.775085 644.522705,279.768677 
	C716.996460,322.196869 761.395691,385.314880 776.818604,467.538879 
	C788.944641,532.186096 779.314514,594.506775 746.117981,651.757141 
	C711.996704,710.601990 661.771851,750.582336 597.094788,772.004028 
	C569.251831,781.225952 540.558594,786.249146 511.211609,785.806335 
	C452.844879,784.925659 399.512054,768.494629 352.224243,733.443420 
	C307.659637,700.410767 276.073059,657.882080 257.756958,605.654602 
	C246.858414,574.577881 242.599197,542.369751 243.513596,509.424286 
	C245.033310,454.670532 261.278198,404.993408 292.810211,360.023041 
	C316.795746,325.815338 346.744385,298.479034 382.989014,278.081299 
	C411.084106,262.269989 441.239105,252.244537 473.227814,247.488876 
	C489.281097,245.102280 505.321228,244.369003 521.970215,244.651474 
M394.630859,407.359161 
	C390.218140,406.469391 387.520630,409.086548 384.812714,411.961578 
	C379.633759,417.460083 379.861145,419.572113 386.854828,422.269775 
	C402.227844,428.199463 417.652039,434.005005 433.147003,439.607849 
	C450.989624,446.059631 468.938385,452.217377 486.825317,458.547241 
	C492.491455,460.552429 492.660980,461.251984 488.504211,465.322144 
	C483.982635,469.749542 479.298950,474.011810 474.794983,478.456543 
	C458.082397,494.949341 441.415863,511.488831 424.728821,528.007568 
	C422.705994,530.010071 420.746216,531.762939 417.451263,531.666992 
	C406.963409,531.361511 396.438416,531.787231 385.983368,531.092957 
	C378.999481,530.629211 373.845337,532.874207 369.229462,537.802979 
	C365.355927,541.939026 365.436066,543.895874 370.811951,546.192139 
	C381.833008,550.899658 392.917511,555.464539 404.051727,559.897644 
	C407.485382,561.264709 411.013306,562.221191 412.118195,566.152710 
	C414.602905,566.280151 415.723816,564.625244 416.995972,563.424133 
	C420.990631,559.652527 424.878632,555.767517 428.791351,551.909607 
	C474.812836,506.533173 520.822693,461.144928 566.857971,415.782501 
	C575.872803,406.899384 584.955811,398.084747 594.076233,389.310120 
	C595.560547,387.882141 597.127502,385.468475 599.493652,386.656708 
	C601.780579,387.805115 600.765503,390.530396 600.871460,392.613129 
	C601.100220,397.110107 599.090271,400.582458 595.878784,403.576233 
	C591.496521,407.661438 586.913696,411.568695 583.345459,416.442810 
	C582.301575,417.868622 581.728455,419.578247 583.311523,420.923187 
	C584.578125,421.999268 585.947754,421.073853 586.868286,420.145721 
	C595.413818,411.529144 605.224976,404.071350 611.881348,393.714050 
	C616.275024,386.877502 618.754028,379.298431 618.630615,371.079529 
	C618.520325,363.732758 615.774902,361.048645 608.581055,361.180176 
	C597.316833,361.386108 587.481506,364.905609 579.419434,373.214874 
	C568.981689,383.972504 557.833801,394.063538 547.741577,405.125763 
	C541.230896,412.262268 534.784729,415.799286 524.541931,414.647430 
	C508.210480,412.810944 491.651733,413.077332 475.205231,412.164185 
	C448.635010,410.688965 422.077911,408.977997 394.630859,407.359161 
M568.541138,458.143768 
	C569.142761,454.712952 569.720581,451.277740 570.355408,447.853119 
	C570.705505,445.964813 570.881165,443.988556 568.963745,442.975342 
	C567.034729,441.956085 565.947632,443.834961 564.826660,444.929871 
	C549.232544,460.161560 533.722595,475.480011 518.054077,490.634583 
	C515.576050,493.031311 514.963196,495.618103 515.399841,498.712769 
	C516.164307,504.130341 517.081299,509.526886 517.812622,514.948608 
	C520.029724,531.386169 522.245056,547.824341 524.353577,564.276062 
	C526.357849,579.914429 528.220825,595.570862 530.167603,611.216675 
	C530.304077,612.313354 530.139587,613.639404 532.256348,614.234863 
	C536.988770,610.081421 543.242737,607.110046 544.478088,599.315186 
	C547.723999,578.834045 551.208069,558.390015 554.700256,537.948792 
	C559.198425,511.618927 563.797119,485.306183 568.541138,458.143768 
M685.160461,472.647369 
	C687.817993,471.000916 688.732849,466.909607 693.426636,467.002747 
	C693.426636,505.750671 693.426636,544.291931 693.426636,583.563782 
	C697.736877,581.453613 699.854065,578.093079 702.912048,575.943665 
	C706.612915,573.342468 707.900818,569.967712 707.870789,565.316528 
	C707.680542,535.823242 707.792419,506.327881 707.862854,476.833374 
	C707.867615,474.833618 707.006409,472.428223 709.669006,470.977142 
	C711.695007,471.408813 713.246338,472.821533 714.405212,474.336548 
	C719.155884,480.547302 725.606628,481.447418 732.711121,480.660461 
	C734.524658,480.459534 736.651611,480.629425 737.409241,478.569946 
	C738.093567,476.709717 736.413330,475.539124 735.310852,474.352814 
	C724.764404,463.004211 714.075806,451.784515 703.698547,440.283752 
	C700.730286,436.994202 698.849915,437.428589 696.110657,440.313599 
	C684.640137,452.394409 673.021423,464.334412 661.500732,476.367798 
	C660.676086,477.229095 659.319336,477.977203 659.755737,479.579712 
	C669.382507,482.387421 677.872620,481.080353 685.160461,472.647369 
M583.385559,662.499939 
	C583.373352,682.810730 583.357727,703.121460 583.350403,723.432251 
	C583.346069,735.444397 583.360291,735.467529 594.746582,731.390137 
	C596.856262,730.634705 599.403870,730.440796 600.103333,727.551331 
	C601.463928,721.930725 603.495178,716.540955 603.071411,710.481384 
	C602.731018,705.613159 601.281982,701.000610 600.854004,696.211731 
	C599.012878,675.609802 600.165833,654.956421 599.906494,634.326477 
	C599.867065,631.189575 601.996277,629.664917 604.238220,628.106201 
	C612.847839,622.120361 621.427490,616.091248 629.999084,610.050842 
	C631.330872,609.112305 633.138672,608.198792 632.465393,606.185486 
	C631.791199,604.169128 629.846191,604.621948 628.190857,604.611389 
	C615.874084,604.533081 603.557678,604.389160 591.240845,604.332153 
	C584.343323,604.300232 583.430115,605.207581 583.414307,612.054993 
	C583.376282,628.536560 583.391174,645.018250 583.385559,662.499939 
M659.436401,597.824402 
	C659.436401,629.022339 659.436401,660.220276 659.436401,691.418274 
	C659.934448,691.635437 660.432556,691.852600 660.930603,692.069763 
	C665.628235,687.976196 670.384583,683.946106 674.959167,679.719482 
	C675.633789,679.096130 675.632629,677.541687 675.633423,676.417847 
	C675.661438,636.460815 675.619873,596.503784 675.705444,556.546936 
	C675.712952,553.051697 674.227356,551.715576 671.030396,551.616943 
	C669.367676,551.565552 667.697449,551.566406 666.045471,551.397583 
	C661.515686,550.934753 659.917236,552.886047 659.875061,557.442505 
	C659.753357,570.589111 660.437134,583.747375 659.436401,597.824402 
M523.674438,715.500244 
	C523.702515,710.674744 523.957947,705.836609 523.691101,701.027466 
	C523.451599,696.711487 525.032959,693.985657 528.688782,691.605408 
	C537.187378,686.071838 545.411926,680.114868 553.694336,674.254211 
	C555.222534,673.172791 557.293518,672.346863 557.206360,669.894531 
	C555.395630,668.073120 553.144348,668.445679 551.037415,668.437439 
	C538.890320,668.389893 526.742920,668.375366 514.595764,668.394348 
	C508.187042,668.404358 507.366699,669.210144 507.358826,675.560608 
	C507.334076,695.528748 507.239441,715.497620 507.387054,735.464661 
	C507.482483,748.369995 504.925629,746.538879 519.248718,746.726990 
	C522.847229,746.774292 523.817322,745.290588 523.753235,741.957947 
	C523.590210,733.474609 523.681458,724.986328 523.674438,715.500244 
M406.556610,329.973083 
	C416.103394,324.784943 426.233368,320.999756 436.556396,317.739227 
	C442.135010,315.977203 440.050171,312.402557 439.035645,308.953369 
	C438.066956,305.660004 437.030243,302.898315 432.518555,304.935852 
	C429.671051,306.221802 426.408936,306.553436 423.447327,307.628540 
	C394.304199,318.208099 369.374817,335.384216 347.190033,356.750336 
	C340.369934,363.318726 334.299652,370.580444 328.833405,378.193573 
	C330.012451,380.574280 332.000885,381.604126 333.653748,382.939575 
	C338.752838,387.059479 338.722046,386.977051 342.900391,381.948730 
	C360.571259,360.683167 381.850555,343.809875 406.556610,329.973083 
M302.724762,571.580566 
	C292.203766,537.201050 292.756042,502.495880 300.425537,467.482758 
	C297.587555,466.572052 295.332062,466.014954 293.211761,465.132874 
	C288.937042,463.354431 286.852448,464.692963 285.784210,469.198639 
	C283.514496,478.771637 281.916870,488.466217 281.444702,498.239471 
	C280.617432,515.364319 280.675751,532.495239 283.322083,549.533875 
	C285.294373,562.232788 288.501801,574.574036 292.964020,586.607361 
	C293.627838,588.397522 294.283081,589.945312 296.818115,589.507446 
	C304.788605,588.130615 307.031189,584.546326 304.409698,577.115479 
	C303.857483,575.550171 303.427002,573.942017 302.724762,571.580566 
M464.386627,739.284790 
	C467.982208,741.852417 471.554535,741.633911 473.779449,738.318604 
	C476.502991,734.260315 472.807800,733.031433 470.389069,731.075500 
	C467.252655,728.539307 464.304901,725.770264 460.223145,723.986755 
	C467.006226,715.863708 475.842224,711.360107 483.136566,705.104187 
	C482.017639,703.432861 480.836884,703.398743 479.685699,703.396973 
	C464.880157,703.373657 450.074493,703.398621 435.269226,703.329224 
	C431.834045,703.313110 431.077209,705.302002 431.076141,708.147949 
	C431.073700,714.635620 431.134644,721.125549 430.978210,727.609924 
	C430.905823,730.610840 432.239288,732.247009 434.944305,733.121704 
	C436.840546,733.734741 438.741913,734.368835 440.562012,735.172485 
	C443.710785,736.562927 446.693573,737.662659 448.080414,732.612671 
	C449.435547,734.045593 450.446198,734.915649 451.212585,735.964233 
	C453.051605,738.480347 455.168365,739.991089 458.421600,738.635132 
	C460.275513,737.862305 462.005005,738.871582 464.386627,739.284790 
M443.093353,612.824341 
	C449.160004,608.539307 453.002808,603.583984 453.179718,595.285339 
	C453.440674,583.046875 455.443817,570.848572 456.594574,558.622681 
	C456.755707,556.910828 457.353455,554.646790 455.286530,553.678101 
	C453.445129,552.815186 452.249420,554.587830 451.088470,555.691284 
	C443.732544,562.682922 436.468323,569.771790 429.066437,576.714111 
	C426.946014,578.702881 426.443420,580.513123 427.730286,583.259155 
	C431.469940,591.239136 434.901093,599.363159 438.566254,607.378967 
	C439.507935,609.438477 440.211426,611.777649 443.093353,612.824341 
M357.677216,639.606567 
	C357.054077,641.136658 359.747192,641.979065 358.558929,643.616882 
	C349.723022,647.258789 343.060608,655.682861 343.863892,662.174438 
	C345.263489,663.048767 346.393677,662.180054 347.552307,661.574646 
	C355.424774,657.461182 362.294983,651.785828 368.877045,646.060913 
	C380.801697,635.689270 391.467957,623.916504 403.348328,613.441711 
	C407.239990,610.010498 407.743195,605.748535 405.107849,602.901794 
	C402.281158,599.848328 398.323517,599.870667 394.512909,603.529053 
	C382.259369,615.293091 370.151550,627.208862 357.677216,639.606567 
M384.929352,580.450378 
	C379.624908,577.320190 377.039642,577.463318 372.785583,582.414490 
	C361.896362,595.088074 349.012024,605.711792 337.268707,617.502625 
	C331.426483,623.368469 331.551331,625.500183 338.273468,630.456421 
	C340.135925,631.829590 341.497772,631.756348 343.065552,630.246033 
	C356.975647,616.845764 370.949158,603.510681 384.771484,590.020630 
	C387.405670,587.449768 389.027710,584.250671 384.929352,580.450378 
M371.920776,682.616577 
	C370.042450,680.979980 368.169586,679.337036 366.283875,677.708984 
	C365.014740,676.613220 363.751770,676.226318 362.342773,677.576355 
	C359.735962,680.074097 357.072052,682.512207 353.887085,685.483398 
	C370.655182,700.542603 388.632935,712.667664 408.891785,722.784302 
	C408.891785,718.783142 408.601990,715.644348 408.960114,712.581299 
	C409.489136,708.056274 407.470123,705.629211 403.602722,703.658020 
	C392.463257,697.980469 382.311829,690.745972 371.920776,682.616577 
M503.570251,301.135132 
	C500.445404,303.760742 496.709015,305.137329 492.874268,306.258179 
	C491.095062,306.778198 489.714294,307.711639 489.737427,309.600739 
	C489.762421,311.642395 491.654877,311.472992 493.072021,311.825195 
	C501.855957,314.008484 507.748810,319.254578 510.195465,328.112274 
	C510.706512,329.962433 510.910339,332.005371 513.345337,333.149536 
	C517.073914,328.286163 517.939819,321.985168 522.171326,317.571777 
	C526.544983,313.010132 532.820251,312.343048 539.473938,309.725433 
	C533.181580,305.397125 526.794556,304.591553 522.221741,300.180145 
	C517.690247,295.808624 516.853088,289.488922 512.689575,283.344086 
	C509.784882,290.050629 508.825195,296.400452 503.570251,301.135132 
M325.661041,406.294403 
	C329.351868,400.808197 329.157593,400.478546 318.851227,394.767853 
	C317.231323,395.158966 316.571075,396.601929 315.728973,397.792816 
	C307.327545,409.674622 300.339203,422.341766 294.965576,435.865906 
	C290.978973,445.899200 291.112366,445.786682 301.339874,448.900146 
	C304.614075,449.896881 305.780914,449.006042 306.680328,445.974243 
	C310.830627,431.984467 317.085327,418.967682 325.661041,406.294403 
M694.929077,599.885681 
	C693.484985,605.967224 694.344604,612.147034 694.199768,618.279419 
	C694.011108,626.268433 694.017273,634.263733 694.065613,642.255554 
	C694.077026,644.132507 694.216980,647.392822 696.992004,645.970215 
	C701.342041,643.740112 706.810547,640.778259 707.290161,635.855896 
	C708.367798,624.796448 708.139893,613.578674 707.164917,602.447754 
	C706.832764,598.655762 703.195435,598.332825 700.704834,596.994202 
	C698.302185,595.702942 696.631653,597.284302 694.929077,599.885681 
M627.158020,716.614075 
	C629.328186,715.389587 631.524170,714.208069 633.659485,712.925476 
	C635.084778,712.069397 636.594421,711.148315 636.598083,709.198486 
	C636.607117,704.381165 636.763428,699.548645 636.433960,694.751587 
	C636.217346,691.596802 633.693848,689.832092 630.890625,689.057495 
	C627.897461,688.230408 626.268921,690.476257 625.130615,692.748596 
	C623.265198,696.472290 621.122620,699.999451 618.844360,703.484009 
	C616.280701,707.405090 614.709045,711.801086 613.894409,716.446472 
	C613.602722,718.110107 613.165100,719.772400 614.818665,720.998718 
	C616.422485,722.188293 618.009399,721.539917 619.505798,720.769104 
	C621.868042,719.552429 624.180298,718.238708 627.158020,716.614075 
M559.981506,740.181274 
	C561.512146,735.109009 561.197510,729.972473 559.896179,724.987366 
	C558.496094,719.624146 555.294922,719.140442 550.621643,722.339905 
	C545.078796,726.134644 542.960449,733.200012 536.689941,736.210327 
	C535.504822,736.779236 535.576904,738.386658 536.564575,739.240356 
	C538.898376,741.257385 540.904785,743.987915 544.482056,743.845215 
	C549.631409,743.639709 554.738647,743.170593 559.981506,740.181274 
M427.542358,652.148987 
	C425.922943,649.632629 424.214050,648.547241 422.727448,652.170166 
	C421.492706,655.179260 419.224823,656.895691 416.352020,658.066406 
	C415.010559,658.613098 413.410400,658.867493 412.752655,661.317810 
	C418.517456,663.331604 422.527344,667.645447 425.712006,673.502869 
	C427.286560,666.288147 432.286957,663.132751 439.425201,661.627258 
	C435.012817,657.702576 429.743805,657.390137 427.542358,652.148987 
M402.071320,363.468750 
	C400.905273,364.289520 399.137665,364.398285 398.652557,366.871368 
	C402.814606,369.471710 406.184418,373.361633 410.040283,378.668518 
	C411.887970,371.738251 417.839752,370.316193 421.340881,366.544739 
	C419.601410,363.977905 416.534027,364.608429 415.446960,362.852448 
	C410.867798,355.455231 406.827118,358.481232 402.071320,363.468750 
M331.287689,515.797241 
	C332.445038,511.600006 337.855042,512.268860 340.162933,507.793030 
	C334.840759,506.595428 331.498169,502.809448 328.255615,499.478210 
	C326.245544,500.297241 325.568207,501.545990 325.207428,502.755310 
	C324.176392,506.211426 318.001617,505.494537 318.864136,509.238892 
	C319.564972,512.281372 324.134125,513.380676 325.871307,516.595581 
	C327.435944,519.491150 329.338074,519.364319 331.287689,515.797241 
M657.449219,393.326324 
	C660.982300,395.003052 661.610168,399.697968 665.701477,401.303925 
	C667.659485,397.902100 670.381348,395.468475 673.947021,393.863800 
	C675.735352,393.058960 676.320557,390.969330 674.374451,389.953796 
	C670.674194,388.023010 667.764282,385.245544 665.026428,382.117584 
	C661.920349,383.873627 661.199036,387.465363 658.204102,388.871704 
	C656.741943,389.558319 656.409851,391.159485 657.449219,393.326324 
M613.220886,550.791443 
	C608.266785,554.633118 607.851624,558.130493 612.964783,562.621704 
	C615.352600,564.719055 616.564270,565.367432 618.292114,562.815186 
	C619.621582,560.851501 621.403992,560.045227 623.518921,559.386841 
	C625.010925,558.922241 626.806335,558.502686 627.135925,555.814819 
	C623.786865,553.568542 619.418823,552.306580 616.950134,548.174194 
	C615.849854,546.332275 614.282349,548.706665 613.220886,550.791443 
M325.034241,633.782715 
	C323.853943,636.035217 323.202759,638.635620 326.189270,639.537048 
	C330.629791,640.877197 332.193146,636.287354 334.883453,634.199219 
	C336.456299,632.978455 336.046509,630.872498 334.517090,629.381714 
	C333.251373,628.147888 331.856415,628.307373 330.438263,629.148254 
	C328.583099,630.248352 326.793579,631.425110 325.034241,633.782715 
M488.916870,618.985352 
	C488.713501,620.510986 489.021210,621.771912 490.888611,621.598816 
	C492.226440,621.474731 493.485260,620.876587 494.094177,619.544067 
	C494.602753,618.431152 493.980804,617.613159 493.077087,617.050903 
	C491.262360,615.922058 489.943207,616.467651 488.916870,618.985352 
z"/>
</svg>